<svg width="360" height="48" viewBox="0 0 360 48" fill="none" xmlns="http://www.w3.org/2000/svg">
<path d="M10.6986 47.9688C6.76685 47.9688 3.82109 46.6473 1.85519 44.0104C-0.110709 41.3735 -1.09058 37.2866 -1.09058 31.7558V13.1016H9.40448V29.8897C9.40448 30.6606 9.4353 31.5845 9.50309 32.6551C9.57087 33.7258 9.74959 34.7659 10.0516 35.7754C10.3535 36.7849 10.8589 37.6169 11.5737 38.2838C12.2886 38.9507 13.2931 39.2811 14.5873 39.2811C16.7442 39.2811 18.4082 38.2104 19.5791 36.0629C20.7438 33.9216 21.3293 31.0461 21.3293 27.4425V13.1016H31.8243V47.0633H23.2705L23.1411 35.6163H22.1674C21.3909 39.9908 20.1152 43.1416 18.3465 45.0688C16.5779 46.996 14.0265 47.9627 10.6986 47.9627V47.9688Z" fill="#657C48"/>
<path d="M38.6897 47.0633V13.1015H47.2435L47.3113 24.4201H48.3466C49.08 20.0884 50.4296 16.9682 52.3955 15.0593C54.3614 13.1505 56.9621 12.196 60.2036 12.196C62.7057 12.196 64.7394 12.71 66.2924 13.7378C67.8454 14.7657 69.0471 16.1178 69.8852 17.788C70.7295 19.4583 71.2965 21.2692 71.6046 23.2209C71.9066 25.1726 72.0606 27.0509 72.0606 28.8496V47.0511H61.5656V30.0732C61.5656 29.3024 61.5225 28.403 61.4362 27.369C61.3499 26.3412 61.1465 25.3317 60.8199 24.3467C60.4933 23.3616 59.9695 22.5479 59.2299 21.8994C58.4966 21.257 57.4551 20.9327 56.1178 20.9327C53.8684 20.9327 52.1428 21.9851 50.935 24.0836C49.7271 26.1821 49.1231 29.1005 49.1231 32.8325V47.045H38.6897V47.0633Z" fill="#657C48"/>
<path d="M90.9737 47.9687C88.2498 47.9687 85.8464 47.2712 83.751 45.8763C81.6557 44.4813 80.0288 42.4379 78.8579 39.7337C77.6931 37.0295 77.1077 33.7501 77.1077 29.8957C77.1077 24.5362 78.2539 20.2596 80.5403 17.066C82.8266 13.8723 86.1545 12.2755 90.5177 12.2755C93.6298 12.2755 96.1011 13.1687 97.9376 14.943C99.774 16.7234 101.099 19.501 101.925 23.2698H103.157C102.726 21.1712 102.356 19.1339 102.054 17.1577C101.752 15.1877 101.598 13.4685 101.598 12.0124V1.20776H112.093V47.0693H103.348L103.287 36.8398H102.184C101.45 40.7003 100.15 43.5208 98.295 45.3012C96.44 47.0816 93.9996 47.9687 90.9737 47.9687ZM94.6652 39.6052C96.2182 39.6052 97.5185 39.1769 98.5538 38.3204C99.5892 37.4638 100.366 36.3503 100.889 34.9738C101.407 33.6033 101.666 32.1411 101.666 30.5993V29.5714C101.666 27.944 101.364 26.4512 100.76 25.0991C100.156 23.747 99.3118 22.6763 98.2334 21.8809C97.1549 21.0856 95.9223 20.6879 94.5419 20.6879C92.4281 20.6879 90.795 21.5873 89.6487 23.3921C88.5025 25.1909 87.9293 27.4423 87.9293 30.1466C87.9293 32.8508 88.5333 35.2063 89.7412 36.9622C90.9491 38.7242 92.5945 39.5991 94.6652 39.5991V39.6052Z" fill="#657C48"/>
<path d="M135.222 47.9688C129.263 47.9688 124.789 46.4025 121.812 43.2761C118.829 40.1437 117.344 35.965 117.344 30.734C117.344 27.2589 117.991 24.1202 119.285 21.312C120.579 18.5038 122.514 16.2829 125.084 14.6555C127.654 13.0281 130.797 12.2144 134.513 12.2144C138.229 12.2144 141.378 13.0281 143.844 14.6555C146.309 16.289 148.09 18.5895 149.187 21.569C150.29 24.5485 150.623 28.0359 150.191 32.0188L127.451 32.2757C127.71 35.1513 128.529 37.2253 129.916 38.5162C131.296 39.801 133.071 40.4434 135.228 40.4434C137.385 40.4434 138.975 39.905 139.862 38.8344C140.75 37.7637 141.255 36.5217 141.385 35.1023L150.647 36.5829C150.431 38.6019 149.784 40.474 148.706 42.2116C147.627 43.9491 145.994 45.3441 143.813 46.3903C141.631 47.4426 138.772 47.9688 135.228 47.9688H135.222ZM134.637 20.1802C132.782 20.1802 131.266 20.7614 130.101 21.9177C128.936 23.074 128.135 24.6831 127.703 26.7388L140.725 26.6103C140.596 24.4262 139.967 22.8049 138.846 21.7525C137.724 20.7002 136.319 20.1741 134.637 20.1741V20.1802Z" fill="#657C48"/>
<path d="M155.892 47.0635V13.1017H164.575L164.704 25.3196H165.74C166.171 20.5169 167.206 17.1519 168.852 15.2186C170.491 13.2914 172.845 12.3247 175.914 12.3247C176.432 12.3247 176.974 12.3675 177.535 12.4532C178.096 12.5388 178.7 12.7101 179.347 12.9671L178.996 23.0376H176.432C175.594 23.0376 174.916 23.0682 174.226 23.0682C169.388 23.0682 166.775 26.1578 166.387 32.331V47.0635H155.892Z" fill="#657C48"/>
<path d="M234.878 47.0632V12.3306H243.562L243.691 25.3255H244.726C245.158 20.5228 246.193 17.1578 247.839 15.2244C249.478 13.2972 251.832 12.3306 254.901 12.3306C255.419 12.3306 255.961 12.3734 256.522 12.459C257.083 12.5447 257.687 12.716 258.334 12.973L257.945 24.163C257.126 23.7776 256.306 23.4962 255.486 23.3249C254.667 23.1536 253.909 23.0679 253.219 23.0679C248.381 23.0679 245.768 26.1576 245.38 32.3308V47.0632H234.885H234.878Z" fill="#657C48"/>
<path d="M278.282 47.9685C274.868 47.9685 271.855 47.3139 269.242 46.0046C266.629 44.6953 264.577 42.713 263.085 40.0578C261.594 37.4025 260.848 34.0742 260.848 30.0852C260.848 26.0962 261.606 22.6578 263.116 20.0209C264.626 17.384 266.703 15.42 269.334 14.1352C271.966 12.8504 274.973 12.208 278.338 12.208C281.703 12.208 284.827 12.8626 287.44 14.1719C290.053 15.4812 292.105 17.4635 293.597 20.1188C295.088 22.7802 295.834 26.1023 295.834 30.0852C295.834 34.0681 295.057 37.5799 293.504 40.2168C291.951 42.8538 289.856 44.8054 287.218 46.0719C284.581 47.3384 281.604 47.9685 278.276 47.9685H278.282ZM278.609 40.3759C280.55 40.3759 282.153 39.6356 283.404 38.155C284.655 36.6744 285.283 34.1966 285.283 30.7276C285.283 26.9955 284.593 24.3036 283.213 22.6578C281.832 21.0059 280.1 20.1799 278.03 20.1799C276.088 20.1799 274.498 20.9325 273.266 22.4314C272.033 23.9304 271.417 26.4388 271.417 29.9567C271.417 33.646 272.095 36.3012 273.457 37.9348C274.819 39.5683 276.532 40.382 278.609 40.382V40.3759Z" fill="#657C48"/>
<path d="M316.898 47.9685C313.484 47.9685 310.47 47.3139 307.857 46.0046C305.244 44.6953 303.192 42.713 301.701 40.0578C300.209 37.4025 299.464 34.0742 299.464 30.0852C299.464 26.0962 300.222 22.6578 301.731 20.0209C303.241 17.384 305.318 15.42 307.95 14.1352C310.581 12.8504 313.589 12.208 316.953 12.208C320.318 12.208 323.443 12.8626 326.056 14.1719C328.669 15.4812 330.721 17.4635 332.212 20.1188C333.704 22.7802 334.449 26.1023 334.449 30.0852C334.449 34.0681 333.673 37.5799 332.12 40.2168C330.567 42.8538 328.471 44.8054 325.834 46.0719C323.196 47.3384 320.22 47.9685 316.892 47.9685H316.898ZM317.224 40.3759C319.166 40.3759 320.768 39.6356 322.019 38.155C323.27 36.6744 323.899 34.1966 323.899 30.7276C323.899 26.9955 323.208 24.3036 321.828 22.6578C320.448 21.0059 318.716 20.1799 316.645 20.1799C314.704 20.1799 313.114 20.9325 311.881 22.4314C310.649 23.9304 310.033 26.4388 310.033 29.9567C310.033 33.646 310.711 36.3012 312.072 37.9348C313.434 39.5683 315.148 40.382 317.224 40.382V40.3759Z" fill="#657C48"/>
<path d="M342.362 47.0633V26.0964H337.309V18.6323L347.095 19.1462V18.1184C345.067 17.8186 343.477 17.2496 342.331 16.4114C341.185 15.5732 340.378 14.6004 339.903 13.4869C339.429 12.3734 339.188 11.2354 339.188 10.0791C339.188 7.24642 340.31 5.00718 342.559 3.35529C344.802 1.70339 347.742 0.877441 351.372 0.877441C353.443 0.877441 355.304 1.12217 356.943 1.61774C358.582 2.11331 359.969 2.76795 361.09 3.58166L360.443 12.973C359.322 12.2021 358.132 11.6025 356.881 11.1743C355.63 10.746 354.416 10.5319 353.251 10.5319C352.087 10.5319 351.014 10.8317 350.176 11.4312C349.332 12.0308 348.913 12.9975 348.913 14.3251C348.913 15.7384 349.387 16.7295 350.337 17.2863C351.286 17.843 352.45 18.1245 353.837 18.1245H361.029V26.1025H352.604V47.0694H342.368L342.362 47.0633Z" fill="#657C48"/>
<path d="M237.646 12.3306H175.002V23.0434H237.646V12.3306Z" fill="#657C48"/>
</svg>
