<svg width="189" height="45" viewBox="0 0 189 45" fill="none" xmlns="http://www.w3.org/2000/svg">
<path d="M139.317 44.9816C137.647 44.9816 136.34 44.6476 135.398 43.9795C134.456 43.3114 133.959 42.3411 133.908 41.0718L136.622 40.2669C136.673 41.0908 136.965 41.6921 137.497 42.0707C138.032 42.4525 138.685 42.6402 139.464 42.6402C140.169 42.6402 140.717 42.5161 141.115 42.2648C141.509 42.0166 141.707 41.7176 141.707 41.3676C141.707 40.9445 141.454 40.6232 140.945 40.4037C140.435 40.1873 139.785 39.9837 138.993 39.796C138.391 39.6465 137.801 39.4811 137.221 39.2997C136.644 39.1184 136.119 38.8925 135.648 38.6157C135.177 38.3421 134.798 37.9827 134.516 37.5404C134.234 37.0982 134.093 36.5447 134.093 35.8861C134.093 34.7249 134.536 33.8055 135.423 33.1279C136.308 32.4471 137.532 32.1099 139.089 32.1099C140.131 32.1099 141.038 32.2689 141.803 32.5871C142.569 32.9052 143.162 33.357 143.585 33.9423C144.005 34.5277 144.21 35.2212 144.197 36.0198L141.464 36.6751C141.464 35.9529 141.256 35.3962 140.842 35.0113C140.429 34.6263 139.83 34.4323 139.051 34.4323C138.371 34.4323 137.862 34.55 137.516 34.7886C137.17 35.0272 136.997 35.3135 136.997 35.6507C136.997 36.0738 137.259 36.3952 137.788 36.6147C138.317 36.8342 138.977 37.0346 139.765 37.2223C140.304 37.3464 140.861 37.4927 141.432 37.6613C142.002 37.8299 142.531 38.059 143.015 38.3453C143.499 38.6317 143.89 39.0071 144.191 39.4683C144.492 39.9296 144.643 40.515 144.643 41.2276C144.643 42.4111 144.175 43.3337 143.239 43.9954C142.303 44.6571 140.993 44.988 139.31 44.988L139.317 44.9816Z" fill="#FB5A46"/>
<path d="M148.796 44.7177V34.8969H145.367V32.3708H155.298V34.8969H151.85V44.7177H148.796Z" fill="#FB5A46"/>
<path d="M154.391 44.7177L158.592 32.3708H162.87L167.071 44.7177H163.754L163.094 42.4526H158.364L157.685 44.7177H154.388H154.391ZM160.627 34.7664L158.97 40.3783H162.495L160.854 34.7664H160.627Z" fill="#FB5A46"/>
<path d="M169.917 44.7177V40.8078L165.469 32.3708H169.125L171.404 38.0941H171.497L173.778 32.3708H177.377L172.967 40.7696V44.7177H169.914H169.917Z" fill="#FB5A46"/>
<path d="M182.994 44.9816C181.325 44.9816 180.017 44.6476 179.075 43.9795C178.133 43.3114 177.636 42.3411 177.585 41.0718L180.299 40.2669C180.351 41.0908 180.642 41.6921 181.174 42.0707C181.709 42.4525 182.363 42.6402 183.142 42.6402C183.847 42.6402 184.395 42.5161 184.792 42.2648C185.186 42.0166 185.385 41.7176 185.385 41.3676C185.385 40.9445 185.132 40.6232 184.622 40.4037C184.113 40.1873 183.462 39.9837 182.671 39.796C182.068 39.6465 181.479 39.4811 180.899 39.2997C180.322 39.1184 179.796 38.8925 179.325 38.6157C178.854 38.3421 178.476 37.9827 178.194 37.5404C177.912 37.0982 177.771 36.5447 177.771 35.8861C177.771 34.7249 178.213 33.8055 179.101 33.1279C179.985 32.4471 181.21 32.1099 182.767 32.1099C183.808 32.1099 184.715 32.2689 185.481 32.5871C186.247 32.9052 186.84 33.357 187.263 33.9423C187.683 34.5277 187.888 35.2212 187.875 36.0198L185.141 36.6751C185.141 35.9529 184.933 35.3962 184.52 35.0113C184.106 34.6263 183.507 34.4323 182.728 34.4323C182.049 34.4323 181.54 34.55 181.194 34.7886C180.847 35.0272 180.674 35.3135 180.674 35.6507C180.674 36.0738 180.937 36.3952 181.466 36.6147C181.995 36.8342 182.655 37.0346 183.443 37.2223C183.981 37.3464 184.539 37.4927 185.109 37.6613C185.68 37.8299 186.209 38.059 186.692 38.3453C187.176 38.6317 187.567 39.0071 187.869 39.4683C188.17 39.9296 188.32 40.515 188.32 41.2276C188.32 42.4111 187.853 43.3337 186.917 43.9954C185.981 44.6571 184.67 44.988 182.988 44.988L182.994 44.9816Z" fill="#FB5A46"/>
<path d="M6.13026 25.0632C4.08577 25.0632 2.55401 24.376 1.53176 23.0048C0.50952 21.6337 0 19.5085 0 16.6326V6.93262H5.45731V15.6623C5.45731 16.0631 5.47333 16.5435 5.50858 17.1002C5.54383 17.657 5.63676 18.1978 5.79378 18.7227C5.9508 19.2477 6.21357 19.6803 6.5853 20.0271C6.95702 20.3739 7.47936 20.5457 8.15231 20.5457C9.2739 20.5457 10.1391 19.9889 10.748 18.8723C11.3536 17.7588 11.6581 16.2635 11.6581 14.3897V6.93262H17.1154V24.5923H12.6675L12.6002 18.64H12.0939C11.6901 20.9147 11.0268 22.5531 10.1071 23.5552C9.18738 24.5573 7.8607 25.06 6.13026 25.06V25.0632Z" fill="#FB5A46"/>
<path d="M20.6852 24.5922V6.93251H25.1331L25.1683 12.818H25.7067C26.088 10.5656 26.7898 8.94313 27.812 7.95055C28.8343 6.95796 30.1866 6.46167 31.8722 6.46167C33.1732 6.46167 34.2307 6.7289 35.0382 7.26337C35.8458 7.79784 36.4707 8.50092 36.9065 9.36943C37.3455 10.2379 37.6403 11.1796 37.8006 12.1945C37.9576 13.2093 38.0377 14.186 38.0377 15.1213V24.5859H32.5804V15.7576C32.5804 15.3568 32.5579 14.8891 32.5131 14.3514C32.4682 13.817 32.3625 13.292 32.1926 12.7799C32.0228 12.2677 31.7504 11.8445 31.3659 11.5073C30.9845 11.1733 30.443 11.0047 29.7476 11.0047C28.5779 11.0047 27.6807 11.5518 27.0526 12.6431C26.4245 13.7343 26.1104 15.2518 26.1104 17.1924V24.5827H20.6852V24.5922Z" fill="#FB5A46"/>
<path d="M47.8724 25.0632C46.456 25.0632 45.2062 24.7005 44.1167 23.9752C43.0271 23.2498 42.1811 22.1872 41.5723 20.7811C40.9666 19.3749 40.6622 17.6697 40.6622 15.6654C40.6622 12.8786 41.2582 10.6548 42.4471 8.99413C43.636 7.33346 45.3664 6.50313 47.6352 6.50313C49.2535 6.50313 50.5385 6.9676 51.4935 7.8902C52.4484 8.81598 53.1374 10.2603 53.5668 12.22H54.2077C53.9834 11.1288 53.7911 10.0694 53.6341 9.04185C53.4771 8.01745 53.397 7.12349 53.397 6.36633V0.748047H58.8543V24.5955H54.3071L54.275 19.2763H53.7014C53.3201 21.2837 52.6439 22.7503 51.6794 23.6761C50.7148 24.6019 49.4458 25.0632 47.8724 25.0632ZM49.7919 20.7143C50.5994 20.7143 51.2756 20.4916 51.8139 20.0462C52.3523 19.6008 52.7561 19.0218 53.0285 18.306C53.2976 17.5933 53.4322 16.833 53.4322 16.0313V15.4968C53.4322 14.6506 53.2752 13.8743 52.9612 13.1713C52.6471 12.4682 52.2081 11.9114 51.6473 11.4979C51.0865 11.0843 50.4456 10.8775 49.7278 10.8775C48.6286 10.8775 47.7795 11.3452 47.1834 12.2837C46.5874 13.219 46.2893 14.3897 46.2893 15.7959C46.2893 17.202 46.6034 18.4269 47.2315 19.3399C47.8596 20.2561 48.7152 20.7111 49.7919 20.7111V20.7143Z" fill="#FB5A46"/>
<path d="M70.8809 25.0631C67.7821 25.0631 65.4556 24.2486 63.9078 22.623C62.3568 20.9941 61.5845 18.8212 61.5845 16.1012C61.5845 14.2942 61.921 12.6621 62.594 11.2019C63.2669 9.74163 64.2731 8.5868 65.6094 7.74055C66.9457 6.89431 68.58 6.47119 70.5123 6.47119C72.4447 6.47119 74.0822 6.89431 75.364 7.74055C76.6458 8.58998 77.5719 9.78617 78.1423 11.3355C78.7159 12.8848 78.889 14.6982 78.6647 16.7693L66.84 16.9029C66.9745 18.3981 67.4007 19.4766 68.1218 20.1479C68.8396 20.8159 69.7625 21.15 70.8841 21.15C72.0057 21.15 72.8324 20.87 73.2939 20.3133C73.7553 19.7565 74.0181 19.1107 74.0854 18.3727L78.9018 19.1425C78.7896 20.1924 78.4532 21.1659 77.8924 22.0694C77.3316 22.9729 76.4824 23.6983 75.348 24.2423C74.2136 24.7895 72.7267 25.0631 70.8841 25.0631H70.8809ZM70.5764 10.6133C69.6119 10.6133 68.8236 10.9156 68.2179 11.5168C67.6122 12.1181 67.1957 12.9548 66.9713 14.0237L73.7425 13.9569C73.6752 12.8212 73.3484 11.9781 72.7651 11.4309C72.1819 10.8837 71.4513 10.6101 70.5764 10.6101V10.6133Z" fill="#FB5A46"/>
<path d="M81.6289 24.5923V6.9326H86.1441L86.2114 13.2858H86.7497C86.9741 10.7884 87.5124 9.03866 88.368 8.03335C89.2204 7.03122 90.4446 6.52856 92.0404 6.52856C92.3096 6.52856 92.5916 6.55083 92.8832 6.59537C93.1748 6.63991 93.4889 6.72899 93.8253 6.86261L93.6427 12.0991H92.3096C91.8738 12.0991 91.5213 12.115 91.1624 12.115C88.6468 12.115 87.2881 13.7216 87.0862 16.9316V24.5923H81.6289Z" fill="#FB5A46"/>
<path d="M122.701 24.5923V6.53174H127.216L127.284 13.2889H127.822C128.046 10.7916 128.585 9.04183 129.44 8.03652C130.293 7.03439 131.517 6.53174 133.113 6.53174C133.382 6.53174 133.664 6.55401 133.956 6.59855C134.247 6.64309 134.561 6.73216 134.898 6.86578L134.696 12.6845C134.27 12.4841 133.843 12.3377 133.417 12.2486C132.991 12.1596 132.597 12.115 132.238 12.115C129.722 12.115 128.364 13.7216 128.162 16.9316V24.5923H122.704H122.701Z" fill="#FB5A46"/>
<path d="M145.271 25.0631C143.495 25.0631 141.928 24.7227 140.57 24.0418C139.211 23.361 138.144 22.3303 137.368 20.9496C136.593 19.5689 136.205 17.8382 136.205 15.764C136.205 13.6897 136.599 11.9018 137.384 10.5306C138.169 9.15945 139.249 8.13823 140.618 7.47015C141.986 6.80206 143.55 6.46802 145.3 6.46802C147.049 6.46802 148.674 6.80842 150.033 7.48923C151.391 8.17004 152.458 9.20081 153.234 10.5815C154.009 11.9654 154.397 13.6929 154.397 15.764C154.397 17.835 153.993 19.6611 153.186 21.0323C152.378 22.4034 151.289 23.4183 149.917 24.0768C148.546 24.7354 146.998 25.0631 145.267 25.0631H145.271ZM145.441 21.115C146.45 21.115 147.283 20.7301 147.934 19.9602C148.584 19.1903 148.911 17.9018 148.911 16.098C148.911 14.1574 148.552 12.7576 147.834 11.9018C147.116 11.0428 146.216 10.6133 145.139 10.6133C144.13 10.6133 143.303 11.0046 142.662 11.7841C142.021 12.5635 141.701 13.8679 141.701 15.6971C141.701 17.6155 142.053 18.9962 142.762 19.8456C143.47 20.6951 144.361 21.1182 145.441 21.1182V21.115Z" fill="#FB5A46"/>
<path d="M165.35 25.0631C163.575 25.0631 162.008 24.7227 160.649 24.0418C159.291 23.361 158.223 22.3303 157.448 20.9496C156.672 19.5689 156.285 17.8382 156.285 15.764C156.285 13.6897 156.679 11.9018 157.464 10.5306C158.249 9.15945 159.329 8.13823 160.697 7.47015C162.066 6.80206 163.629 6.46802 165.379 6.46802C167.129 6.46802 168.753 6.80842 170.112 7.48923C171.471 8.17004 172.538 9.20081 173.314 10.5815C174.089 11.9654 174.477 13.6929 174.477 15.764C174.477 17.835 174.073 19.6611 173.265 21.0323C172.458 22.4034 171.368 23.4183 169.997 24.0768C168.625 24.7354 167.077 25.0631 165.347 25.0631H165.35ZM165.52 21.115C166.53 21.115 167.363 20.7301 168.013 19.9602C168.664 19.1903 168.991 17.9018 168.991 16.098C168.991 14.1574 168.632 12.7576 167.914 11.9018C167.196 11.0428 166.296 10.6133 165.219 10.6133C164.209 10.6133 163.383 11.0046 162.742 11.7841C162.101 12.5635 161.78 13.8679 161.78 15.6971C161.78 17.6155 162.133 18.9962 162.841 19.8456C163.549 20.6951 164.44 21.1182 165.52 21.1182V21.115Z" fill="#FB5A46"/>
<path d="M178.591 24.5923V13.6897H175.964V9.80848L181.052 10.0757V9.54124C179.998 9.38536 179.171 9.08949 178.575 8.65364C177.979 8.2178 177.56 7.71196 177.313 7.13295C177.066 6.55395 176.941 5.96221 176.941 5.36094C176.941 3.88797 177.524 2.72359 178.694 1.86462C179.86 1.00566 181.389 0.576172 183.276 0.576172C184.353 0.576172 185.321 0.703426 186.173 0.961116C187.026 1.21881 187.747 1.55921 188.33 1.98233L187.993 6.86572C187.41 6.46487 186.792 6.1531 186.141 5.9304C185.491 5.70771 184.859 5.59636 184.254 5.59636C183.648 5.59636 183.091 5.75224 182.655 6.06402C182.216 6.37579 181.998 6.87845 181.998 7.5688C181.998 8.30369 182.245 8.81907 182.738 9.10858C183.232 9.39808 183.837 9.54443 184.558 9.54443H188.298V13.6929H183.917V24.5954H178.595L178.591 24.5923Z" fill="#FB5A46"/>
<path d="M94.8091 24.5922V17.5773H92.3608V15.7734H99.4525V17.5773H96.9882V24.5922H94.8091Z" fill="#FB5A46"/>
<path d="M100.449 24.5922V15.7734H102.615V19.2602H106.073V15.7734H108.239V24.5922H106.073V21.0259H102.615V24.5922H100.449Z" fill="#FB5A46"/>
<path d="M109.829 24.5922V15.7734H116.613V17.5232H112.011V19.3525H115.969V20.9431H112.011V22.8265H116.629V24.589H109.832L109.829 24.5922Z" fill="#FB5A46"/>
<path d="M124.14 6.53174H91.5661V12.1023H124.14V6.53174Z" fill="#FB5A46"/>
</svg>
