<svg width="255" height="61" viewBox="0 0 255 61" fill="none" xmlns="http://www.w3.org/2000/svg">
<path d="M188.155 60.7336C185.9 60.7336 184.134 60.2825 182.862 59.3802C181.589 58.4779 180.918 57.1675 180.849 55.4531L184.515 54.3661C184.584 55.4789 184.978 56.291 185.696 56.8022C186.419 57.3178 187.302 57.5713 188.354 57.5713C189.306 57.5713 190.046 57.4038 190.583 57.0643C191.115 56.7292 191.383 56.3253 191.383 55.8527C191.383 55.2813 191.041 54.8473 190.353 54.5508C189.665 54.2587 188.786 53.9837 187.717 53.7302C186.904 53.5282 186.107 53.3048 185.324 53.0599C184.545 52.815 183.835 52.51 183.199 52.1361C182.563 51.7666 182.052 51.2811 181.671 50.6839C181.291 50.0867 181.1 49.3391 181.1 48.4497C181.1 46.8814 181.697 45.6397 182.896 44.7245C184.091 43.805 185.744 43.3496 187.847 43.3496C189.254 43.3496 190.479 43.5644 191.513 43.9941C192.547 44.4238 193.348 45.0339 193.919 45.8244C194.486 46.615 194.763 47.5517 194.746 48.6301L191.054 49.5152C191.054 48.5399 190.773 47.788 190.215 47.2681C189.656 46.7482 188.847 46.4861 187.795 46.4861C186.878 46.4861 186.19 46.6451 185.722 46.9673C185.255 47.2896 185.021 47.6763 185.021 48.1317C185.021 48.7032 185.376 49.1371 186.09 49.4336C186.804 49.7301 187.696 50.0007 188.76 50.2542C189.488 50.4218 190.241 50.6194 191.011 50.8472C191.781 51.0749 192.495 51.3842 193.149 51.7709C193.802 52.1576 194.33 52.6646 194.737 53.2876C195.144 53.9106 195.348 54.7012 195.348 55.6637C195.348 57.262 194.716 58.508 193.452 59.4017C192.188 60.2954 190.418 60.7422 188.146 60.7422L188.155 60.7336Z" fill="#FBFAF5"/>
<path d="M200.956 60.3772V47.1136H196.325V43.7021H209.738V47.1136H205.081V60.3772H200.956Z" fill="#FBFAF5"/>
<path d="M208.513 60.3772L214.187 43.7021H219.964L225.638 60.3772H221.159L220.267 57.3181H213.879L212.962 60.3772H208.509H208.513ZM216.935 46.9375L214.697 54.5167H219.458L217.242 46.9375H216.935Z" fill="#FBFAF5"/>
<path d="M229.481 60.3772V55.0967L223.474 43.7021H228.412L231.49 51.4317H231.615L234.697 43.7021H239.557L233.602 55.0452V60.3772H229.477H229.481Z" fill="#FBFAF5"/>
<path d="M247.144 60.7336C244.889 60.7336 243.123 60.2825 241.851 59.3802C240.578 58.4779 239.908 57.1675 239.838 55.4531L243.504 54.3661C243.573 55.4789 243.967 56.291 244.686 56.8022C245.408 57.3178 246.291 57.5713 247.343 57.5713C248.295 57.5713 249.035 57.4038 249.572 57.0643C250.104 56.7292 250.372 56.3253 250.372 55.8527C250.372 55.2813 250.031 54.8473 249.342 54.5508C248.654 54.2587 247.776 53.9837 246.707 53.7302C245.893 53.5282 245.097 53.3048 244.313 53.0599C243.534 52.815 242.825 52.51 242.188 52.1361C241.552 51.7666 241.042 51.2811 240.661 50.6839C240.28 50.0867 240.089 49.3391 240.089 48.4497C240.089 46.8814 240.687 45.6397 241.885 44.7245C243.08 43.805 244.733 43.3496 246.837 43.3496C248.243 43.3496 249.468 43.5644 250.502 43.9941C251.537 44.4238 252.337 45.0339 252.909 45.8244C253.476 46.615 253.753 47.5517 253.735 48.6301L250.044 49.5152C250.044 48.5399 249.762 47.788 249.204 47.2681C248.646 46.7482 247.836 46.4861 246.785 46.4861C245.867 46.4861 245.179 46.6451 244.712 46.9673C244.244 47.2896 244.01 47.6763 244.01 48.1317C244.01 48.7032 244.365 49.1371 245.079 49.4336C245.794 49.7301 246.685 50.0007 247.75 50.2542C248.477 50.4218 249.23 50.6194 250 50.8472C250.771 51.0749 251.485 51.3842 252.138 51.7709C252.792 52.1576 253.32 52.6646 253.727 53.2876C254.133 53.9106 254.337 54.7012 254.337 55.6637C254.337 57.262 253.705 58.508 252.441 59.4017C251.177 60.2954 249.407 60.7422 247.135 60.7422L247.144 60.7336Z" fill="#FBFAF5"/>
<path d="M8.27924 33.8327C5.51805 33.8327 3.44932 32.9047 2.06873 31.0528C0.688133 29.201 0 26.3309 0 22.4468V9.34644H7.37038V21.1363C7.37038 21.6777 7.39202 22.3265 7.43963 23.0784C7.48724 23.8303 7.61274 24.5607 7.82481 25.2696C8.03688 25.9786 8.39176 26.5629 8.8938 27.0312C9.39583 27.4996 10.1013 27.7316 11.0101 27.7316C12.5249 27.7316 13.6934 26.9797 14.5157 25.4716C15.3337 23.9677 15.7448 21.9483 15.7448 19.4177V9.34644H23.1152V33.1968H17.1081L17.0172 25.1579H16.3334C15.7881 28.23 14.8922 30.4427 13.6501 31.7961C12.408 33.1496 10.6163 33.8284 8.27924 33.8284V33.8327Z" fill="#FBFAF5"/>
<path d="M27.9365 33.1968V9.34635H33.9436L33.9912 17.295H34.7183C35.2333 14.2531 36.1811 12.0618 37.5617 10.7213C38.9423 9.38072 40.7687 8.71045 43.0452 8.71045C44.8023 8.71045 46.2305 9.07136 47.3211 9.79319C48.4117 10.515 49.2557 11.4646 49.8443 12.6375C50.4372 13.8105 50.8353 15.0823 51.0517 16.4529C51.2638 17.8235 51.372 19.1426 51.372 20.4058V33.1882H44.0016V21.2651C44.0016 20.7237 43.9713 20.0921 43.9107 19.366C43.8501 18.6442 43.7073 17.9352 43.4779 17.2435C43.2486 16.5517 42.8807 15.9803 42.3614 15.5248C41.8463 15.0737 41.1149 14.846 40.1758 14.846C38.5961 14.846 37.3843 15.585 36.536 17.0587C35.6878 18.5325 35.2636 20.5819 35.2636 23.2029V33.1839H27.9365V33.1968Z" fill="#FBFAF5"/>
<path d="M64.6542 33.8328C62.7413 33.8328 61.0534 33.343 59.582 32.3633C58.1105 31.3837 56.9679 29.9487 56.1456 28.0496C55.3277 26.1505 54.9165 23.8475 54.9165 21.1406C54.9165 17.3768 55.7215 14.3735 57.3271 12.1307C58.9328 9.88785 61.2698 8.76644 64.334 8.76644C66.5196 8.76644 68.255 9.39374 69.5447 10.6398C70.8345 11.8901 71.7649 13.8407 72.3449 16.4874H73.2105C72.9075 15.0137 72.6478 13.5829 72.4358 12.1951C72.2237 10.8116 72.1155 9.60427 72.1155 8.58168V0.993896H79.4859V33.2012H73.3446L73.3013 26.0173H72.5267C72.0116 28.7284 71.0985 30.7092 69.7958 31.9595C68.4931 33.2098 66.7792 33.8328 64.6542 33.8328ZM67.2466 27.9593C68.3373 27.9593 69.2505 27.6586 69.9775 27.057C70.7046 26.4555 71.2499 25.6735 71.6178 24.7068C71.9813 23.7444 72.1631 22.7175 72.1631 21.6347V20.9129C72.1631 19.77 71.951 18.7217 71.5269 17.7721C71.1028 16.8226 70.5099 16.0707 69.7525 15.5121C68.9951 14.9535 68.1295 14.6743 67.1601 14.6743C65.6756 14.6743 64.5287 15.3059 63.7237 16.5734C62.9188 17.8366 62.5163 19.4177 62.5163 21.3168C62.5163 23.2159 62.9404 24.8701 63.7887 26.1032C64.6369 27.3406 65.7925 27.955 67.2466 27.955V27.9593Z" fill="#FBFAF5"/>
<path d="M95.7285 33.8324C91.5435 33.8324 88.4014 32.7325 86.3111 30.537C84.2164 28.3371 83.1733 25.4025 83.1733 21.7289C83.1733 19.2885 83.6278 17.0843 84.5366 15.1122C85.4455 13.14 86.8044 11.5804 88.6092 10.4375C90.4139 9.29459 92.6211 8.72314 95.2308 8.72314C97.8405 8.72314 100.052 9.29459 101.783 10.4375C103.514 11.5847 104.765 13.2002 105.536 15.2926C106.31 17.3851 106.544 19.8341 106.241 22.6312L90.2711 22.8117C90.4528 24.8311 91.0284 26.2876 92.0022 27.1942C92.9717 28.0965 94.2181 28.5476 95.7329 28.5476C97.2476 28.5476 98.3642 28.1695 98.9874 27.4176C99.6106 26.6657 99.9655 25.7935 100.056 24.7967L106.561 25.8365C106.41 27.2544 105.955 28.5691 105.198 29.7894C104.441 31.0096 103.294 31.9892 101.762 32.7239C100.23 33.4629 98.2214 33.8324 95.7329 33.8324H95.7285ZM95.3174 14.3173C94.0147 14.3173 92.95 14.7255 92.1321 15.5375C91.3141 16.3496 90.7515 17.4796 90.4485 18.9233L99.5933 18.833C99.5024 17.2991 99.061 16.1606 98.2733 15.4215C97.4857 14.6825 96.4989 14.313 95.3174 14.313V14.3173Z" fill="#FBFAF5"/>
<path d="M110.244 33.1969V9.34645H116.342L116.433 17.9268H117.16C117.463 14.5539 118.19 12.1908 119.346 10.8331C120.497 9.47964 122.15 8.80078 124.305 8.80078C124.669 8.80078 125.05 8.83086 125.444 8.89101C125.838 8.95116 126.262 9.07147 126.716 9.25192L126.469 16.3241H124.669C124.08 16.3241 123.604 16.3456 123.12 16.3456C119.722 16.3456 117.887 18.5154 117.615 22.8506V33.1969H110.244Z" fill="#FBFAF5"/>
<path d="M165.715 33.1967V8.80493H171.813L171.903 17.9309H172.631C172.934 14.5581 173.661 12.1949 174.816 10.8372C175.967 9.48379 177.621 8.80493 179.776 8.80493C180.139 8.80493 180.52 8.83501 180.914 8.89516C181.308 8.95531 181.732 9.07562 182.187 9.25607L181.914 17.1145C181.338 16.8439 180.763 16.6462 180.187 16.5259C179.611 16.4056 179.079 16.3455 178.594 16.3455C175.197 16.3455 173.362 18.5152 173.089 22.8505V33.1967H165.719H165.715Z" fill="#FBFAF5"/>
<path d="M196.196 33.8326C193.798 33.8326 191.682 33.3729 189.847 32.4534C188.012 31.5339 186.571 30.1418 185.523 28.2771C184.476 26.4124 183.952 24.075 183.952 21.2736C183.952 18.4723 184.484 16.0576 185.545 14.2057C186.605 12.3539 188.064 10.9747 189.912 10.0724C191.76 9.17014 193.872 8.71899 196.235 8.71899C198.598 8.71899 200.792 9.17873 202.627 10.0982C204.462 11.0177 205.903 12.4098 206.951 14.2745C207.998 16.1435 208.522 18.4766 208.522 21.2736C208.522 24.0707 207.976 26.537 206.886 28.3888C205.795 30.2406 204.323 31.6113 202.471 32.5006C200.619 33.39 198.528 33.8326 196.191 33.8326H196.196ZM196.425 28.5005C197.788 28.5005 198.914 27.9806 199.792 26.9409C200.671 25.9011 201.112 24.161 201.112 21.7248C201.112 19.1039 200.627 17.2134 199.658 16.0576C198.689 14.8975 197.472 14.3175 196.018 14.3175C194.655 14.3175 193.538 14.8459 192.673 15.8986C191.807 16.9513 191.374 18.7129 191.374 21.1834C191.374 23.7743 191.851 25.639 192.807 26.7862C193.763 27.9334 194.967 28.5048 196.425 28.5048V28.5005Z" fill="#FBFAF5"/>
<path d="M223.314 33.8326C220.917 33.8326 218.8 33.3729 216.965 32.4534C215.13 31.5339 213.689 30.1418 212.642 28.2771C211.594 26.4124 211.071 24.075 211.071 21.2736C211.071 18.4723 211.603 16.0576 212.663 14.2057C213.724 12.3539 215.182 10.9747 217.03 10.0724C218.878 9.17014 220.99 8.71899 223.353 8.71899C225.716 8.71899 227.911 9.17873 229.746 10.0982C231.581 11.0177 233.022 12.4098 234.069 14.2745C235.117 16.1435 235.64 18.4766 235.64 21.2736C235.64 24.0707 235.095 26.537 234.004 28.3888C232.914 30.2406 231.442 31.6113 229.59 32.5006C227.737 33.39 225.647 33.8326 223.31 33.8326H223.314ZM223.544 28.5005C224.907 28.5005 226.032 27.9806 226.911 26.9409C227.789 25.9011 228.231 24.161 228.231 21.7248C228.231 19.1039 227.746 17.2134 226.777 16.0576C225.807 14.8975 224.591 14.3175 223.137 14.3175C221.774 14.3175 220.657 14.8459 219.791 15.8986C218.926 16.9513 218.493 18.7129 218.493 21.1834C218.493 23.7743 218.969 25.639 219.926 26.7862C220.882 27.9334 222.085 28.5048 223.544 28.5048V28.5005Z" fill="#FBFAF5"/>
<path d="M241.197 33.1967V18.4723H237.648V13.2304L244.521 13.5914V12.8695C243.097 12.659 241.98 12.2594 241.175 11.6708C240.37 11.0821 239.803 10.399 239.47 9.617C239.137 8.83502 238.968 8.03585 238.968 7.2238C238.968 5.23447 239.756 3.66192 241.336 2.50184C242.911 1.34176 244.975 0.761719 247.524 0.761719C248.979 0.761719 250.286 0.933583 251.437 1.28161C252.588 1.62963 253.562 2.08937 254.35 2.66081L253.895 9.25609C253.107 8.71472 252.272 8.29365 251.394 7.99289C250.515 7.69213 249.662 7.54175 248.844 7.54175C248.026 7.54175 247.273 7.75228 246.685 8.17335C246.092 8.59441 245.798 9.27327 245.798 10.2056C245.798 11.1981 246.131 11.8942 246.797 12.2852C247.464 12.6762 248.282 12.8738 249.256 12.8738H254.306V18.4766H248.39V33.201H241.201L241.197 33.1967Z" fill="#FBFAF5"/>
<path d="M128.045 33.1965V23.7225H124.738V21.2864H134.316V23.7225H130.988V33.1965H128.045Z" fill="#FBFAF5"/>
<path d="M135.662 33.1965V21.2864H138.588V25.9954H143.257V21.2864H146.183V33.1965H143.257V28.3801H138.588V33.1965H135.662Z" fill="#FBFAF5"/>
<path d="M148.33 33.1965V21.2864H157.492V23.6495H151.277V26.12H156.622V28.2683H151.277V30.8119H157.513V33.1922H148.334L148.33 33.1965Z" fill="#FBFAF5"/>
<path d="M167.658 8.80493H123.665V16.3283H167.658V8.80493Z" fill="#FBFAF5"/>
</svg>
