<svg viewBox="0 0 8 16" fill="none" xmlns="http://www.w3.org/2000/svg">
<path d="M4.97432 8.18095H7.12024C7.22907 7.3477 7.33511 6.53439 7.44394 5.69727H4.96985C4.96985 5.07898 4.94418 4.48119 4.97711 3.88727C5.01283 3.24017 5.34601 2.94488 6.00068 2.9205C6.44381 2.90388 6.88751 2.90665 7.3312 2.90056C7.3926 2.89945 7.45399 2.89446 7.52654 2.89059C7.52654 2.17645 7.52877 1.4817 7.52096 0.78696C7.52096 0.745962 7.44394 0.672277 7.40041 0.670061C6.68994 0.639036 5.97779 0.584741 5.26788 0.601916C4.59034 0.617983 3.96247 0.840146 3.4345 1.28392C2.74412 1.86398 2.44665 2.63463 2.39976 3.50389C2.3646 4.16262 2.38023 4.82468 2.37353 5.48507C2.37298 5.55267 2.37353 5.62026 2.37353 5.70724H0.227051V8.1948H2.36405V15.1982H4.97432V8.18095Z" fill="#FBFAF5"/>
</svg>
