<svg viewBox="0 0 15 14" fill="none" xmlns="http://www.w3.org/2000/svg">
<g id="Heart">
<mask id="path-1-inside-1_199_3246" fill="white">
<path d="M7.77573 13.6801C7.70349 13.6801 7.63128 13.6608 7.56657 13.622C7.49629 13.5799 5.82642 12.5745 4.13259 11.0595C3.12868 10.1616 2.32731 9.27103 1.7508 8.41256C1.00477 7.3017 0.629609 6.23319 0.635662 5.23666C0.642746 4.0771 1.04323 2.9866 1.76344 2.16602C2.4958 1.33162 3.47316 0.872131 4.51554 0.872131C5.85144 0.872131 7.07282 1.64817 7.77576 2.8775C8.4787 1.64819 9.70008 0.872131 11.036 0.872131C12.0208 0.872131 12.9603 1.28673 13.6817 2.03957C14.4734 2.86573 14.9232 4.03305 14.9158 5.24216C14.9097 6.23695 14.5275 7.30384 13.7798 8.41317C13.2016 9.2712 12.4013 10.1614 11.4013 11.059C9.71369 12.5738 8.05581 13.5793 7.98606 13.6213C7.92104 13.6605 7.84836 13.6801 7.77573 13.6801Z"/>
</mask>
<path d="M7.77573 13.6801C7.70349 13.6801 7.63128 13.6608 7.56657 13.622C7.49629 13.5799 5.82642 12.5745 4.13259 11.0595C3.12868 10.1616 2.32731 9.27103 1.7508 8.41256C1.00477 7.3017 0.629609 6.23319 0.635662 5.23666C0.642746 4.0771 1.04323 2.9866 1.76344 2.16602C2.4958 1.33162 3.47316 0.872131 4.51554 0.872131C5.85144 0.872131 7.07282 1.64817 7.77576 2.8775C8.4787 1.64819 9.70008 0.872131 11.036 0.872131C12.0208 0.872131 12.9603 1.28673 13.6817 2.03957C14.4734 2.86573 14.9232 4.03305 14.9158 5.24216C14.9097 6.23695 14.5275 7.30384 13.7798 8.41317C13.2016 9.2712 12.4013 10.1614 11.4013 11.059C9.71369 12.5738 8.05581 13.5793 7.98606 13.6213C7.92104 13.6605 7.84836 13.6801 7.77573 13.6801Z" stroke="#F6F6F6" stroke-width="2" stroke-linejoin="round" mask="url(#path-1-inside-1_199_3246)"/>
</g>
</svg>
