<svg  viewBox="0 0 16 16"  xmlns="http://www.w3.org/2000/svg">
<path d="M7.73539 0.178945C8.60927 0.178945 9.48371 0.1739 10.3576 0.180626C10.9546 0.185671 11.551 0.214259 12.1351 0.357196C12.755 0.509103 13.3324 0.754619 13.8408 1.147C14.5151 1.6683 14.94 2.3572 15.1895 3.16326C15.3245 3.5988 15.4103 4.04499 15.4282 4.50015C15.4518 5.11394 15.4692 5.72773 15.472 6.34208C15.4781 7.57527 15.477 8.80846 15.4703 10.0422C15.468 10.4918 15.4535 10.9419 15.4238 11.3903C15.3806 12.0473 15.2298 12.6807 14.9479 13.2782C14.4714 14.2883 13.6861 14.9492 12.639 15.313C12.0616 15.5136 11.4647 15.6095 10.857 15.6224C9.97923 15.6409 9.10086 15.6442 8.2225 15.6482C7.36599 15.6521 6.50893 15.6532 5.65242 15.6476C5.09469 15.6437 4.53639 15.6398 3.98089 15.5742C3.33963 15.4979 2.7264 15.3275 2.15577 15.0192C1.23817 14.5237 0.647361 13.7575 0.315522 12.7793C0.140633 12.2636 0.0453415 11.7334 0.0262831 11.1902C0.0117091 10.7754 0.00161934 10.36 0.0010588 9.94467C-0.00118336 8.40431 0.000498258 6.86338 0.00274042 5.32302C0.00330096 4.82974 0.0223593 4.33647 0.108122 3.84936C0.265634 2.95698 0.605321 2.15036 1.24265 1.48837C1.69949 1.01415 2.25443 0.697444 2.87495 0.488363C3.46183 0.291053 4.06834 0.206411 4.68549 0.193519C5.17877 0.182869 5.67148 0.178945 6.16476 0.176703C6.6883 0.1739 7.21184 0.176142 7.73539 0.176142C7.73539 0.177263 7.73539 0.178384 7.73539 0.179505V0.178945ZM8.01902 1.53881C6.8374 1.55451 5.86823 1.56404 4.89962 1.58198C4.45399 1.59038 4.0106 1.63523 3.57394 1.73276C2.71015 1.92615 2.08234 2.4127 1.72304 3.2294C1.54703 3.62963 1.44613 4.05059 1.43212 4.48613C1.40073 5.45475 1.37831 6.42336 1.35981 7.39197C1.35308 7.7367 1.3699 8.082 1.37438 8.42673C1.38615 9.3135 1.38952 10.2003 1.41138 11.0871C1.42091 11.4716 1.48088 11.8533 1.59019 12.2249C1.84916 13.105 2.40746 13.7031 3.27517 14.0069C3.63672 14.1336 4.0106 14.2031 4.39233 14.2216C4.74659 14.239 5.10141 14.2468 5.45567 14.2474C7.08684 14.2491 8.71802 14.2474 10.3492 14.2457C10.8649 14.2457 11.3783 14.2093 11.8823 14.0921C12.9013 13.855 13.5661 13.2367 13.8722 12.2334C14.0179 11.7569 14.0611 11.2664 14.0667 10.7726C14.0751 10.0282 14.0757 9.28435 14.0751 8.53996C14.0751 7.4626 14.0712 6.38524 14.0678 5.30788C14.0661 4.79611 14.0235 4.28826 13.9187 3.78658C13.7354 2.90877 13.2433 2.27592 12.4221 1.90485C11.9983 1.7137 11.5504 1.61841 11.0891 1.60608C9.99493 1.57637 8.90075 1.55787 8.01902 1.53881Z" fill="#FBFAF5"/>
<path d="M7.71969 3.93568C9.89571 3.92503 11.7163 5.67728 11.7113 7.92448C11.7057 10.1594 9.8688 11.9116 7.6799 11.8897C5.58011 11.8684 3.75219 10.1706 3.75556 7.883C3.75892 5.60833 5.65074 3.91494 7.71969 3.93568ZM7.73539 10.4996C9.16589 10.4996 10.3083 9.34994 10.3212 7.91888C10.3335 6.53435 9.20737 5.31853 7.72754 5.31741C6.29536 5.31629 5.13617 6.48614 5.14009 7.92673C5.14401 9.34882 6.30489 10.499 7.73539 10.4996Z" fill="#FBFAF5"/>
<path d="M10.931 3.77481C10.9333 3.26247 11.3542 2.84936 11.8711 2.84992C12.31 2.84992 12.7881 3.19689 12.7959 3.77873C12.8027 4.2905 12.3711 4.71315 11.8604 4.71091C11.3464 4.70923 10.9288 4.28826 10.931 3.77425V3.77481Z" fill="#FBFAF5"/>
</svg>
