<svg  viewBox="0 0 15 15" fill="none" xmlns="http://www.w3.org/2000/svg">
<path d="M5.81263 5.5419H8.59571C8.59795 5.75042 8.59627 5.9567 8.59683 6.16298C8.59683 6.36982 8.59683 6.57666 8.59683 6.78966C8.67082 6.77733 8.69604 6.72576 8.72575 6.68036C8.91914 6.38663 9.1512 6.12878 9.43203 5.91634C9.84235 5.6058 10.3082 5.42475 10.8126 5.34795C11.3956 5.25883 11.9774 5.26836 12.5531 5.40625C13.1338 5.54582 13.6473 5.80872 14.0509 6.26051C14.3872 6.63775 14.5868 7.08394 14.6933 7.57274C14.7801 7.97184 14.8284 8.37711 14.867 8.7835C14.9276 9.41523 14.9298 10.0486 14.9315 10.6821C14.9337 11.4074 14.9343 12.1327 14.9343 12.8575C14.9343 13.4769 14.9321 14.0969 14.9309 14.7163C14.9309 14.7824 14.9309 14.8491 14.9309 14.9108C14.8407 14.9365 12.1422 14.9416 12.0066 14.9186V14.7975C12.0066 13.7835 12.0083 12.7695 12.006 11.756C12.0044 11.1473 11.9999 10.538 11.9892 9.92924C11.9831 9.5733 11.9304 9.22128 11.8412 8.87599C11.7751 8.61982 11.6619 8.38776 11.4674 8.20166C11.2717 8.01444 11.0335 7.9141 10.7689 7.88271C10.4107 7.84067 10.0587 7.87991 9.72183 8.01276C9.29302 8.1826 9.029 8.50491 8.88719 8.93541C8.81376 9.15738 8.77284 9.38608 8.76387 9.61871C8.74481 10.1041 8.72519 10.5896 8.72295 11.075C8.71734 12.3143 8.72127 13.5537 8.72127 14.7925V14.922H5.81375V5.5419H5.81263Z" fill="#FBFAF5"/>
<path d="M1.05252 5.55311H3.94211V14.9276H1.06205C1.04019 14.8485 1.0301 5.816 1.05252 5.55311Z" fill="#FBFAF5"/>
<path d="M0.809808 2.55254C0.798598 1.59234 1.57382 0.841772 2.5088 0.847938C3.46957 0.854104 4.21453 1.61868 4.19042 2.57832C4.16408 3.62934 3.3087 4.25602 2.46676 4.23528C1.51216 4.2123 0.778418 3.40232 0.809808 2.55254Z" fill="#FBFAF5"/>
</svg>
