<svg  viewBox="0 0 17 16" fill="none" xmlns="http://www.w3.org/2000/svg">
<path d="M6.35514 15.4141C7.1612 14.3076 7.3075 12.9691 7.6797 11.7017C9.10739 12.9321 10.9465 12.8788 12.2711 11.5066C13.7565 9.96738 14.2033 8.07724 13.6825 6.04696C13.229 4.27846 11.9292 3.24034 10.1657 2.86085C8.16849 2.43092 6.33104 2.81097 4.77834 4.20279C3.38428 5.45223 2.87811 7.47073 3.50255 9.15347C3.73238 9.77287 4.12531 10.2544 4.72061 10.5576C5.04404 10.7219 5.19202 10.654 5.28619 10.3048C5.33104 10.1389 5.39045 9.97242 5.4011 9.80314C5.41007 9.66581 5.4011 9.48868 5.32375 9.38946C4.60121 8.46569 4.66511 7.45056 5.04068 6.44999C5.66119 4.79528 7.25369 3.89169 9.06143 4.07274C10.0132 4.16803 10.8596 4.4696 11.4062 5.2992C11.6136 5.61423 11.7918 5.98811 11.8484 6.35582C12.0581 7.71401 11.8613 9.02007 11.1152 10.1978C10.6954 10.8603 10.1085 11.2919 9.26378 11.2039C8.50425 11.1243 8.02779 10.4752 8.21165 9.73251C8.40504 8.95056 8.64775 8.18094 8.84674 7.40011C8.90111 7.18598 8.90728 6.94943 8.88486 6.72858C8.80582 5.9371 8.06086 5.51333 7.34281 5.8575C6.57768 6.22409 6.34281 6.92533 6.30862 7.69607C6.29292 8.05201 6.41624 8.413 6.46277 8.77287C6.48631 8.95785 6.51994 9.15516 6.48014 9.33173C6.15895 10.7572 5.80637 12.1759 5.49864 13.6042C5.39774 14.0711 5.40166 14.561 5.35794 15.038C2.32991 13.8811 -0.192524 9.9842 0.991336 5.7936C2.18921 1.55536 6.68698 -0.979404 11.0463 0.476878C15.4493 1.94774 17.6209 6.69887 15.8597 10.9074C14.0934 15.1277 9.57937 16.4831 6.35458 15.4141H6.35514Z" fill="#FBFAF5"/>
</svg>
