<svg  viewBox="0 0 15 14" fill="none" xmlns="http://www.w3.org/2000/svg">
<path d="M6.81822 1.10451C6.96789 0.643852 7.6196 0.643853 7.76927 1.10451L8.67452 3.89056C8.87533 4.5086 9.45126 4.92704 10.1011 4.92704H13.0305C13.5149 4.92704 13.7163 5.54684 13.3244 5.83154L10.9545 7.55342C10.4287 7.93539 10.2087 8.61244 10.4096 9.23047L11.3148 12.0165C11.4645 12.4772 10.9372 12.8602 10.5454 12.5755L8.17542 10.8537C7.64969 10.4717 6.9378 10.4717 6.41207 10.8537L4.04211 12.5755C3.65025 12.8602 3.12301 12.4772 3.27269 12.0165L4.17793 9.23047C4.37875 8.61244 4.15876 7.93539 3.63303 7.55342L1.26307 5.83154C0.871212 5.54684 1.0726 4.92704 1.55696 4.92704H4.48639C5.13623 4.92704 5.71216 4.5086 5.91297 3.89056L6.81822 1.10451Z" stroke="#657C48" stroke-linejoin="round"/>
</svg>
