<svg  viewBox="0 0 16 15" fill="none" xmlns="http://www.w3.org/2000/svg">
<path d="M12.7333 5.07052L12.7245 5.49671L13.1439 5.57285C14.1298 5.75179 14.8692 6.60297 14.8692 7.60955C14.8692 8.74408 13.9291 9.68088 12.7589 9.68088H3.50428C1.94136 9.68088 0.682098 8.42968 0.682098 6.90828C0.682098 5.6021 1.61014 4.47586 2.89959 4.19937L3.28001 4.1178L3.29442 3.72899C3.35366 2.12983 4.69656 0.833862 6.35187 0.833862C7.59244 0.833862 8.63618 1.55119 9.12296 2.56622L9.3067 2.94938L9.71447 2.82982C11.2666 2.37473 12.7646 3.56391 12.7333 5.07052Z" stroke="#F6F6F6"/>
<path d="M3.99428 11.4514L3.00193 14.1779" stroke="white" stroke-linecap="round"/>
<path d="M6.71805 11.4514L5.7257 14.1779" stroke="white" stroke-linecap="round"/>
<path d="M9.44188 11.4514L8.44953 14.1779" stroke="white" stroke-linecap="round"/>
<path d="M12.1656 11.4514L11.1733 14.1779" stroke="white" stroke-linecap="round"/>
</svg>
