<svg  viewBox="0 0 19 14" fill="none" xmlns="http://www.w3.org/2000/svg">
<path d="M9.99883 0.293945C11.2103 0.335268 12.9175 0.378887 14.6231 0.458089C15.2715 0.487933 15.9221 0.563691 16.5615 0.679051C17.5188 0.852377 18.1369 1.44696 18.3938 2.41288C18.5811 3.11767 18.6361 3.84311 18.6905 4.56741C18.783 5.80479 18.8021 7.0439 18.7421 8.28301C18.6916 9.32469 18.6507 10.3704 18.3983 11.3874C18.1515 12.3814 17.5155 12.9812 16.5362 13.1574C15.9462 13.2636 15.3449 13.3209 14.7459 13.3554C12.7358 13.4696 10.7235 13.527 8.70998 13.4937C7.28988 13.4702 5.86922 13.4237 4.45025 13.3519C3.77946 13.3181 3.10306 13.2481 2.4463 13.1103C1.57416 12.9272 0.982451 12.3481 0.754181 11.4695C0.601067 10.88 0.536007 10.2619 0.475995 9.65183C0.36214 8.49709 0.333536 7.33661 0.365505 6.17555C0.397474 5.01105 0.452439 3.8477 0.657153 2.69813C0.820363 1.78099 1.30663 1.11925 2.15689 0.767435C2.57417 0.594683 3.02566 0.570578 3.46986 0.529829C5.47718 0.345025 7.49011 0.339859 9.99883 0.293945ZM7.73128 4.07785V9.73275C9.33533 8.78922 10.9198 7.85716 12.5289 6.91133C10.9231 5.9632 9.33758 5.02655 7.73128 4.07785Z" fill="#FBFAF5"/>
</svg>
